<svg
  xmlns="http://www.w3.org/2000/svg"
  width="20"
  height="20"
  viewBox="0 0 20 20"
  fill="none"
>
  <path
    d="M10.0415 12.875H10.3415C10.3415 12.7093 10.2072 12.575 10.0415 12.575V12.875ZM10.0415 12.9583L10.0414 13.2583C10.121 13.2583 10.1973 13.2267 10.2536 13.1705C10.3099 13.1142 10.3415 13.0379 10.3415 12.9583H10.0415ZM9.9585 12.9583H9.6585C9.6585 13.1239 9.79276 13.2582 9.95842 13.2583L9.9585 12.9583ZM9.9585 12.875V12.575C9.79281 12.575 9.6585 12.7093 9.6585 12.875H9.9585ZM10.3 7.04163C10.3 6.87594 10.1657 6.74163 10 6.74163C9.83431 6.74163 9.7 6.87594 9.7 7.04163H10.3ZM9.7 10.375C9.7 10.5406 9.83431 10.675 10 10.675C10.1657 10.675 10.3 10.5406 10.3 10.375H9.7ZM10 17.2C6.02355 17.2 2.8 13.9764 2.8 10H2.2C2.2 14.3078 5.69218 17.8 10 17.8V17.2ZM2.8 10C2.8 6.02355 6.02355 2.8 10 2.8V2.2C5.69218 2.2 2.2 5.69218 2.2 10H2.8ZM10 2.8C13.9764 2.8 17.2 6.02355 17.2 10H17.8C17.8 5.69218 14.3078 2.2 10 2.2V2.8ZM17.2 10C17.2 13.9764 13.9764 17.2 10 17.2V17.8C14.3078 17.8 17.8 14.3078 17.8 10H17.2ZM9.7415 12.875V12.9583H10.3415V12.875H9.7415ZM10.0416 12.6583L9.95857 12.6583L9.95842 13.2583L10.0414 13.2583L10.0416 12.6583ZM10.2585 12.9583V12.875H9.6585V12.9583H10.2585ZM9.9585 13.175H10.0415V12.575H9.9585V13.175ZM9.7 7.04163V10.375H10.3V7.04163H9.7Z"
    fill="#9AA6AC"
  />
</svg>
